<?xml version="1.0" encoding="UTF-8"?>
<svg version="1.1" xmlns="http://www.w3.org/2000/svg" xmlns:xlink="http://www.w3.org/1999/xlink">
    <title>shutterstock_1233860155 2</title>
    <g id="App-Icon" stroke="none" stroke-width="1" fill="none" fill-rule="evenodd">
        <g id="App-Icon---App-Store:-1280-x-768-pt" transform="translate(-400.000000, -152.000000)">
            <g id="shutterstock_1233860155" fill="#000000" transform="translate(400.000000, 152.000000)">
                <path d="M32.992,338.589 C32.992,407.433 88.801,463.242 157.644,463.242 L345.771,463.242 C414.614,463.242 470.423,407.433 470.423,338.589 C470.423,325.359 471.571,312.153 473.853,299.122 L480,264.022 L480,253.779 L415.243,277.507 L415.243,257.28 L415.327,257.28 C429.852,257.28 441.626,240.692 441.626,220.231 C441.626,199.769 429.852,183.181 415.327,183.181 L415.243,183.181 L415.243,169.139 L419.017,169.139 C439.045,169.139 455.281,146.265 455.281,118.048 C455.281,89.831 439.045,66.957 419.017,66.957 L415.243,66.957 L415.243,8.346 C415.243,4.155 411.847,0.758 407.655,0.758 L406.734,0.758 C402.543,0.758 399.146,4.155 399.146,8.346 L399.146,66.957 L355.903,66.957 C372.941,95.961 374.107,137.437 358.752,168.25 L358.308,169.139 L399.146,169.139 L399.146,183.181 L369.56,183.181 C381.915,204.214 382.761,234.29 371.625,256.634 L371.304,257.28 L399.146,257.28 L399.146,284.675 C385.583,291.952 373.511,301.815 363.659,313.779 L363.658,313.779 C363.641,313.796 363.623,313.814 363.605,313.831 C360.333,316.998 355.92,318.706 351.367,318.706 L263.78,318.706 L263.78,276.513 L278.168,276.513 C311.644,276.513 338.78,238.281 338.78,191.119 C338.78,143.958 311.644,105.727 278.168,105.727 L263.78,105.727 L263.78,77.709 C263.78,73.518 260.383,70.121 256.192,70.121 L255.271,70.121 C251.08,70.121 247.683,73.518 247.683,77.709 L247.683,105.727 L172.683,105.727 C201.16,154.205 203.109,223.525 177.442,275.025 L176.701,276.513 L247.683,276.513 L247.683,318.706 L210.429,318.706 C208.615,315.929 207.118,312.902 206.005,309.662 C201.847,297.56 190.201,289.632 177.405,289.632 L173.708,289.632 C161.942,289.632 151.244,282.783 146.348,272.085 C141.446,261.377 130.751,254.511 118.975,254.511 L79.024,254.511 L79.024,236.104 C92.626,234.681 103.35,218.694 103.35,199.168 C103.35,179.643 92.626,163.656 79.024,162.233 L79.024,148.077 L80.741,148.077 C100.77,148.077 117.006,125.203 117.006,96.986 C117.006,68.769 100.77,45.895 80.741,45.895 L79.024,45.895 L79.024,8.346 C79.024,4.155 75.627,0.758 71.437,0.758 L70.515,0.758 C66.324,0.758 62.927,4.155 62.927,8.346 L62.927,45.895 L17.629,45.895 C34.667,74.899 35.832,116.374 20.477,147.187 L20.032,148.077 L62.927,148.077 L62.927,162.119 L31.284,162.119 C43.64,183.152 44.485,213.229 33.35,235.573 L33.027,236.218 L62.927,236.218 L62.927,254.511 L0,254.511 L23.903,301.022 C29.876,312.644 32.992,325.522 32.992,338.589 Z M380.854,359.876 C392.977,359.876 402.805,369.705 402.805,381.828 C402.805,393.951 392.977,403.779 380.854,403.779 C368.73,403.779 358.902,393.951 358.902,381.828 C358.902,369.705 368.73,359.876 380.854,359.876 Z M293.78,359.876 C305.903,359.876 315.731,369.705 315.731,381.828 C315.731,393.951 305.903,403.779 293.78,403.779 C281.657,403.779 271.829,393.951 271.829,381.828 C271.829,369.705 281.657,359.876 293.78,359.876 Z M206.707,359.876 C218.83,359.876 228.658,369.705 228.658,381.828 C228.658,393.951 218.83,403.779 206.707,403.779 C194.584,403.779 184.757,393.951 184.757,381.828 C184.757,369.705 194.584,359.876 206.707,359.876 Z M119.635,359.876 C131.758,359.876 141.585,369.705 141.585,381.828 C141.585,393.951 131.758,403.779 119.635,403.779 C107.511,403.779 97.684,393.951 97.684,381.828 C97.684,369.705 107.511,359.876 119.635,359.876 L119.635,359.876 Z" id="Fill-153"></path>
            </g>
        </g>
    </g>
</svg>